<svg xmlns="http://www.w3.org/2000/svg" id="Capa_1" height="512" viewBox="0 0 512 512" width="512"><g><g><path d="m501.559 397.351c-4.256 0-7.707-3.45-7.707-7.707v-22.003c0-6.169-5.018-11.187-11.187-11.187h-14.052c-4.256 0-7.707-3.45-7.707-7.707s3.45-7.707 7.707-7.707h14.052c14.667 0 26.6 11.933 26.6 26.6v22.003c.001 4.258-3.449 7.708-7.706 7.708z" fill="#365e7d"></path></g><path d="m479.742 138.236c-4.256 0-7.706 3.45-7.706 7.707 0 15.59-12.683 28.273-28.273 28.273s-28.273-12.683-28.273-28.273v-44.65c0-4.256-3.45-7.706-7.707-7.706s-7.707 3.45-7.707 7.706v44.65c0 15.59-12.683 28.273-28.273 28.273s-28.273-12.683-28.273-28.273c0-4.256-3.45-7.707-7.707-7.707-4.256 0-7.706 3.45-7.706 7.707 0 24.089 19.597 43.686 43.686 43.686 10.777 0 20.647-3.93 28.273-10.422v23.177c-1.175-.214-2.378-.338-3.603-.338-11.015 0-19.977 8.962-19.977 19.978 0 15.077 16.428 32.707 23.58 39.667v61.207c0 4.256 3.45 7.707 7.707 7.707s7.707-3.45 7.707-7.707v-61.207c7.152-6.96 23.58-24.591 23.58-39.667 0-11.016-8.962-19.978-19.977-19.978-1.225 0-2.427.124-3.603.338v-23.177c7.626 6.492 17.497 10.422 28.273 10.422 24.089 0 43.686-19.597 43.686-43.686-.001-4.257-3.451-7.707-7.707-7.707zm-60.65 79.223c2.517 0 4.564 2.048 4.564 4.565 0 6.372-8.132 17.34-15.874 25.523-7.743-8.185-15.874-19.152-15.874-25.523 0-2.517 2.048-4.565 4.564-4.565 1.841 0 3.493 1.096 4.209 2.793 1.205 2.854 4.002 4.709 7.1 4.709s5.895-1.855 7.1-4.709c.717-1.697 2.37-2.793 4.211-2.793z" fill="#365e7d"></path><g><path d="m200.562 239.384c-4.904 0-9.672.579-14.244 1.662-2.753.652-5.487-1.007-6.202-3.744-6.942-26.56-31.085-46.164-59.821-46.164-30.965 0-56.6 22.761-61.12 52.464-.351 2.304-2.215 4.117-4.531 4.386-30.764 3.566-54.644 29.708-54.644 61.428v124.69c0 11.35 9.201 20.551 20.551 20.551h181.065c33.574 0 60.791-27.217 60.791-60.791v-92.637c0-34.156-27.689-61.845-61.845-61.845z" fill="#95d6a4"></path></g><g><path d="m200.562 239.384c-4.904 0-9.672.579-14.244 1.662-2.753.652-5.487-1.007-6.202-3.744-6.941-26.56-31.085-46.164-59.821-46.164-9.641 0-18.764 2.208-26.896 6.144 20.071 6.389 35.695 22.742 41.056 43.253.715 2.737 3.449 4.396 6.202 3.744 4.573-1.083 9.34-1.662 14.244-1.662 34.156 0 61.845 27.689 61.845 61.845v92.637c0 26.73-17.26 49.414-41.236 57.558h26.106c33.574 0 60.791-27.217 60.791-60.791v-92.637c0-34.156-27.689-61.845-61.845-61.845z" fill="#78c2a4"></path></g><g><path d="m474.918 468.957c-4.256 0-7.707-3.45-7.707-7.707v-43.285c0-4.256 3.45-7.707 7.707-7.707s7.707 3.45 7.707 7.707v43.285c0 4.257-3.451 7.707-7.707 7.707z" fill="#365e7d"></path></g><g><path d="m113.857 468.957c-4.256 0-7.707-3.45-7.707-7.707v-43.285c0-4.256 3.45-7.707 7.707-7.707s7.707 3.45 7.707 7.707v43.285c-.001 4.257-3.451 7.707-7.707 7.707z" fill="#365e7d"></path></g><g><path d="m86.989 397.351c-4.256 0-7.707-3.45-7.707-7.707v-22.003c0-14.667 11.933-26.6 26.6-26.6h14.798c4.256 0 7.707 3.45 7.707 7.707s-3.45 7.707-7.707 7.707h-14.798c-6.169 0-11.187 5.018-11.187 11.187v22.003c0 4.256-3.45 7.706-7.706 7.706z" fill="#365e7d"></path></g><g><path d="m473.117 389.644h-357.459v-29.894l3-7.707-3-7.707v-16.665l3-7.707-3-7.706v-13.98c0-5.523 4.477-10 10-10h337.459c5.523 0 10 4.477 10 10v13.98l-3 7.707 3 7.707v16.665l-3 7.707 3 7.707z" fill="#9d6b6b"></path></g><g><path d="m463.117 288.279h-31.138c5.675 0 10.275 4.6 10.275 10.275v91.091h30.863v-29.895l-3-7.707 3-7.707v-16.665l-3-7.707 3-7.706v-13.98c0-5.522-4.477-9.999-10-9.999z" fill="#8b5e5e"></path></g><g><path d="m115.658 312.258h357.459v15.413h-357.459z" fill="#664545"></path></g><g><path d="m115.658 344.337h357.459v15.413h-357.459z" fill="#664545"></path></g><g><path d="m502.344 383.615-8.491-3.178h-407.078c-5.523 0-10 4.477-10 10v24.496c0 5.523 4.477 10 10 10h19.375l7.707-6.256 7.707 6.256h345.531l7.824-5.693 7.926 5.693h19.155c5.523 0 10-4.477 10-10v-24.496c0-2.657-1.036-5.072-2.727-6.863-1.823-1.931-6.929.041-6.929.041z" fill="#8b5e5e"></path></g><g><path d="m502 380.438h-12.195v12.026c0 5.675-4.6 10.275-10.275 10.275h-402.755v12.194c0 5.523 4.477 10 10 10h415.225c5.523 0 10-4.477 10-10v-24.495c0-5.523-4.477-10-10-10z" fill="#785252"></path></g><g><circle cx="335.823" cy="125.689" fill="#f6e266" r="32.078"></circle></g><g><circle cx="479.742" cy="125.689" fill="#f6e266" r="32.078"></circle></g><g><circle cx="407.782" cy="75.121" fill="#f6e266" r="32.078"></circle></g><g><path d="m346.942 95.592c1.28 3.464 1.982 7.21 1.982 11.119 0 17.716-14.362 32.078-32.078 32.078-3.909 0-7.655-.701-11.119-1.982 4.522 12.236 16.29 20.959 30.097 20.959 17.716 0 32.078-14.362 32.078-32.078-.001-13.806-8.725-25.574-20.96-30.096z" fill="#f1d333"></path></g><g><path d="m490.861 95.592c1.28 3.464 1.982 7.21 1.982 11.119 0 17.716-14.362 32.078-32.078 32.078-3.909 0-7.655-.701-11.119-1.982 4.522 12.236 16.29 20.959 30.097 20.959 17.716 0 32.078-14.362 32.078-32.078-.001-13.806-8.725-25.574-20.96-30.096z" fill="#f1d333"></path></g><g><path d="m418.901 45.025c1.28 3.464 1.982 7.21 1.982 11.119 0 17.716-14.362 32.078-32.078 32.078-3.91 0-7.655-.701-11.119-1.982 4.522 12.235 16.29 20.959 30.097 20.959 17.716 0 32.078-14.362 32.078-32.078 0-13.807-8.724-25.574-20.96-30.096z" fill="#f1d333"></path></g></g></svg>