<svg xmlns="http://www.w3.org/2000/svg" height="512" viewBox="0 0 58 58" width="512"><g id="Page-1" fill="none" fill-rule="evenodd"><g id="007---Pipe" fill-rule="nonzero"><path id="Shape" d="m56 54v-35c0-9.38884075-7.6111593-17-17-17s-17 7.61115925-17 17v3c-1.1032019.0032948-1.9967052.8967981-2 2v10c.0032948 1.1032019.8967981 1.9967052 2 2v3c0 1.6568542-1.3431458 3-3 3s-3-1.3431458-3-3v-35c.5305905.00282307 1.0395388-.2101411 1.41-.59.3798589-.3704612.5928231-.87940947.59-1.41-.0032948-1.10320187-.8967981-1.9967052-2-2h-14c-.53059053-.00282307-1.0395388.2101411-1.41.59-.3798589.3704612-.59282307.87940947-.59 1.41.0032948 1.10320187.89679813 1.9967052 2 2v35c.00000014 9.3888406 7.61115935 16.9999997 17 16.9999997 9.3888406 0 16.9999999-7.6111591 17-16.9999997v-3c1.1032019-.0032948 1.9967052-.8967981 2-2v-10c-.0032948-1.1032019-.8967981-1.9967052-2-2v-3c0-1.6568542 1.3431458-3 3-3s3 1.3431458 3 3v35c-1.1011688.0081672-1.9918328.8988312-2 2 .0032948 1.1032019.8967981 1.9967052 2 2h14c1.1011688-.0081672 1.9918328-.8988312 2-2-.0032948-1.1032019-.8967981-1.9967052-2-2z" fill="#3b97d3"></path><path id="Shape" d="m18 2c.0028231.53059053-.2101411 1.0395388-.59 1.41-.3704612.3798589-.8794095.59282307-1.41.59h-14c-1.10320187-.0032948-1.9967052-.89679813-2-2-.00282307-.53059053.2101411-1.0395388.59-1.41.3704612-.3798589.87940947-.59282307 1.41-.59h14c1.1032019.0032948 1.9967052.89679813 2 2z" fill="#bdc3c7"></path><rect id="Rectangle-path" fill="#f3d55b" height="14" rx="2" width="18" x="20" y="22"></rect><path id="Shape" d="m58 56c-.0081672 1.1011688-.8988312 1.9918328-2 2h-14c-1.1032019-.0032948-1.9967052-.8967981-2-2 .0081672-1.1011688.8988312-1.9918328 2-2h14c1.1032019.0032948 1.9967052.8967981 2 2z" fill="#bdc3c7"></path><g fill="#fff"><path id="Shape" d="m6 11c-.55228475 0-1-.4477153-1-1v-2c0-.55228475.44771525-1 1-1s1 .44771525 1 1v2c0 .5522847-.44771525 1-1 1z"></path><path id="Shape" d="m6 29c-.55228475 0-1-.4477153-1-1v-14c0-.5522847.44771525-1 1-1s1 .4477153 1 1v14c0 .5522847-.44771525 1-1 1z"></path></g></g></g></svg>