<svg xmlns="http://www.w3.org/2000/svg" id="icon" height="512" viewBox="0 0 128 128" width="512"><path d="m56.034 9.713h8.169v21.298h-8.169z" fill="#f7b521"></path><path d="m64.2 32.012h-8.166a1 1 0 0 1 -1-1v-21.299a1 1 0 0 1 1-1h8.166a1 1 0 0 1 1 1v21.3a1 1 0 0 1 -1 .999zm-7.168-2h6.168v-19.3h-6.166z" fill="#2f3a5a"></path><path d="m22.134 72.575h-21.134v29.581h22.169z" fill="#f7b521"></path><path d="m22.134 72.575h-21.134v19.986h22.169z" fill="#ffc943"></path><path d="m23.169 103.156h-22.169a1 1 0 0 1 -1-1v-29.581a1 1 0 0 1 1-1h21.134a1 1 0 0 1 1 .965l1.035 29.581a1 1 0 0 1 -1 1.035zm-21.169-2h20.134l-.966-27.581h-19.168z" fill="#2f3a5a"></path><path d="m124.189 114.066c-2.517-34.324-30.2-38.671-36.154-37.527a8.758 8.758 0 0 1 -.968.131c-4.6.361-8.414-3.608-8.414-8.225v-12.845l-4.805-5.947v-7.179l-3.239-5.635v-8.059a1.9 1.9 0 0 0 -1.9-1.9h-17.231a1.9 1.9 0 0 0 -1.9 1.886l-.057 8.07-2.45 5.6v7.094l-5.492 5.833v5.608c.686 9.382 0 11.67-5.263 13.043a5.5 5.5 0 0 1 -6.865-3.432h-10.979v33.637h11.441c1.373-5.034 4.805-3.432 4.805-3.432s11.67 7.78 24.713 9.153 28.145-9.153 28.145-9.153c13.043 0 10.3 13.272 10.3 13.272z" fill="#ffc943"></path><path d="m97.875 114.061s2.748-13.262-10.3-13.262c0 0-15.108 10.525-28.142 9.145s-24.72-9.145-24.72-9.145-3.432-1.608-4.8 3.432h-11.445v-7.994h12.143c1.466-5.04 5.1-3.432 5.1-3.432s12.382 7.777 26.23 9.156 29.869-9.156 29.869-9.156c10.568 0 12.675 14.413 13.088 21.256z" fill="#f7b521"></path><path d="m124.188 115.065h-26.314a1 1 0 0 1 -.979-1.2c.012-.056 1.111-5.65-1.751-9.155-1.533-1.877-3.975-2.856-7.262-2.913-2.159 1.455-16.1 10.454-28.555 9.145-12.7-1.337-23.916-8.5-25.079-9.26a2.136 2.136 0 0 0 -1.6.055 4.074 4.074 0 0 0 -1.771 2.753 1 1 0 0 1 -.965.737h-11.44a1 1 0 0 1 -1-1v-33.638a1 1 0 0 1 1-1h10.984a1 1 0 0 1 .948.684 4.441 4.441 0 0 0 5.663 2.781c4.292-1.12 5.224-2.361 4.519-12v-5.681a1 1 0 0 1 .271-.686l5.221-5.544v-6.7a.993.993 0 0 1 .084-.4l2.367-5.417.056-7.865a2.9 2.9 0 0 1 2.9-2.878h17.227a2.9 2.9 0 0 1 2.9 2.9v7.792l3.106 5.4a1 1 0 0 1 .133.5v6.825l4.583 5.673a1 1 0 0 1 .222.628v12.844a7.458 7.458 0 0 0 2.384 5.46 6.489 6.489 0 0 0 4.952 1.768 7.826 7.826 0 0 0 .857-.116c3.374-.651 13.246.236 22.22 7.111 8.889 6.812 14.117 17.643 15.12 31.324a1 1 0 0 1 -1 1.073zm-25.162-2h24.074c-1.15-12.752-5.943-22.441-14.255-28.81-8.354-6.4-17.659-7.3-20.626-6.735a9.8 9.8 0 0 1 -1.077.146 8.468 8.468 0 0 1 -6.467-2.293 9.464 9.464 0 0 1 -3.026-6.929v-12.491l-4.58-5.673a1 1 0 0 1 -.222-.628v-6.911l-3.106-5.4a1 1 0 0 1 -.133-.5v-8.061a.9.9 0 0 0 -.9-.9h-17.229a.9.9 0 0 0 -.9.892l-.058 8.071a.992.992 0 0 1 -.084.393l-2.365 5.413v6.884a1 1 0 0 1 -.271.686l-5.221 5.544v5.211c.693 9.442-.01 12.445-6.01 14.011a6.4 6.4 0 0 1 -7.785-3.4h-9.313v31.637h9.705a5.358 5.358 0 0 1 2.651-3.314 4.108 4.108 0 0 1 3.313-.024 1.026 1.026 0 0 1 .132.074c.114.076 11.628 7.66 24.263 8.99 12.531 1.322 27.321-8.871 27.464-8.974a1 1 0 0 1 .572-.18c4.076 0 7.146 1.231 9.124 3.661 2.604 3.188 2.544 7.528 2.33 9.61z" fill="#2f3a5a"></path><path d="m47.075 49.537h26.773l4.805 6.063-37.07-.229z" fill="#f7b521"></path><path d="m78.653 56.6h-.006l-37.07-.229a1 1 0 0 1 -.723-1.686l5.492-5.833a1 1 0 0 1 .729-.314h26.773a1 1 0 0 1 .783.379l4.806 6.063a1 1 0 0 1 -.783 1.621zm-34.768-2.215 32.689.2-3.21-4.05h-25.857z" fill="#2f3a5a"></path><path d="m47.075 42.444 2.45-5.605h21.083l3.24 5.635z" fill="#f7b521"></path><path d="m73.848 43.474-26.772-.03a1 1 0 0 1 -.915-1.4l2.449-5.6a1 1 0 0 1 .916-.6h21.082a1 1 0 0 1 .867.5l3.239 5.634a1 1 0 0 1 -.867 1.5zm-25.248-2.029 23.516.026-2.086-3.632h-19.851z" fill="#2f3a5a"></path><rect fill="#f7b521" height="9.849" rx="1.626" width="32.04" x="94.96" y="112.664"></rect><path d="m125.374 123.514h-28.787a2.63 2.63 0 0 1 -2.627-2.626v-6.6a2.63 2.63 0 0 1 2.627-2.626h28.787a2.629 2.629 0 0 1 2.626 2.629v6.6a2.629 2.629 0 0 1 -2.626 2.623zm-28.787-9.849a.627.627 0 0 0 -.627.626v6.6a.627.627 0 0 0 .627.626h28.787a.627.627 0 0 0 .626-.626v-6.6a.627.627 0 0 0 -.626-.626z" fill="#2f3a5a"></path><path d="m95.136 10.8a6.94 6.94 0 0 0 -5.019-5.09 7.018 7.018 0 0 0 -4.744.437 28.8 28.8 0 0 1 -8.859 2.441 2.561 2.561 0 0 0 -2.559-2.538h-27.181a2.561 2.561 0 0 0 -2.559 2.538 28.79 28.79 0 0 1 -8.858-2.441 7.021 7.021 0 0 0 -4.744-.438 6.941 6.941 0 0 0 -5.019 5.091 7.018 7.018 0 0 0 6.806 8.7 6.9 6.9 0 0 0 2.413-.432 48.724 48.724 0 0 1 9.417-2.585 2.552 2.552 0 0 0 2.542 2.455h27.183a2.552 2.552 0 0 0 2.545-2.456 48.762 48.762 0 0 1 9.417 2.585 6.9 6.9 0 0 0 2.413.432 7.018 7.018 0 0 0 6.806-8.699z" fill="#ffc943"></path><path d="m88.327 20.5a7.9 7.9 0 0 1 -2.762-.5 49.648 49.648 0 0 0 -8.293-2.375 3.539 3.539 0 0 1 -3.317 2.308h-27.181a3.539 3.539 0 0 1 -3.317-2.308 49.649 49.649 0 0 0 -8.293 2.375 7.877 7.877 0 0 1 -2.762.5 7.966 7.966 0 0 1 -6.275-3.035 8.06 8.06 0 0 1 -1.507-6.89 7.991 7.991 0 0 1 11.165-5.332 26.8 26.8 0 0 0 7.62 2.226 3.573 3.573 0 0 1 3.369-2.42h27.181a3.575 3.575 0 0 1 3.369 2.42 26.8 26.8 0 0 0 7.62-2.226 8.013 8.013 0 0 1 5.414-.5 7.927 7.927 0 0 1 5.751 5.836 8.064 8.064 0 0 1 -1.508 6.89 7.968 7.968 0 0 1 -6.274 3.031zm-11.827-5.018a.958.958 0 0 1 .154.012 49.626 49.626 0 0 1 9.611 2.635 5.91 5.91 0 0 0 2.064.37 5.977 5.977 0 0 0 4.708-2.277 6.075 6.075 0 0 0 1.127-5.192 5.909 5.909 0 0 0 -4.288-4.35 6.029 6.029 0 0 0 -4.076.372 29.914 29.914 0 0 1 -9.165 2.528 1 1 0 0 1 -1.121-.98 1.567 1.567 0 0 0 -1.559-1.549h-27.181a1.565 1.565 0 0 0 -1.558 1.549 1 1 0 0 1 -1.121.983 29.477 29.477 0 0 1 -9.165-2.532 6.009 6.009 0 0 0 -4.075-.371 5.907 5.907 0 0 0 -4.287 4.351 6.075 6.075 0 0 0 1.126 5.192 5.98 5.98 0 0 0 4.706 2.277 5.9 5.9 0 0 0 2.064-.37 49.6 49.6 0 0 1 9.611-2.635 1 1 0 0 1 1.153.943 1.553 1.553 0 0 0 1.543 1.5h27.184a1.553 1.553 0 0 0 1.543-1.5 1 1 0 0 1 1-.956z" fill="#2f3a5a"></path></svg>