<svg xmlns="http://www.w3.org/2000/svg" id="Layer_1" height="512" viewBox="0 0 512.016 512.016" width="512"><g><path d="m496.647 512.009h-60.057l-175.66-116.45-189.956 116.45h-55.466c-8.488 0-15.369-6.881-15.369-15.369v-394.432c0-8.488 6.881-15.369 15.369-15.369h481.139c8.488 0 15.369 6.881 15.369 15.369v394.432c0 8.488-6.881 15.369-15.369 15.369z" fill="#bee75e"></path><path d="m496.647 86.839h-240.503v311.655l4.787-2.935 175.66 116.45h60.057c8.488 0 15.369-6.881 15.369-15.369v-394.432c-.001-8.489-6.882-15.369-15.37-15.369z" fill="#00cb75"></path><path d="m441.314 512.003-104.677-393.848c-1.747-6.572-7.696-11.147-14.497-11.147h-132.022c-6.801 0-12.751 4.576-14.497 11.148l-104.647 393.847z" fill="#6b5c59"></path><path d="m256.144 512.003h185.17l-104.677-393.848c-1.747-6.572-7.696-11.147-14.497-11.147h-65.996z" fill="#4f4540"></path><g><path d="m256.142 192.007c-8.284 0-15-6.716-15-15v-16c0-8.284 6.716-15 15-15s15 6.716 15 15v16c0 8.285-6.716 15-15 15z" fill="#fff4f4"></path></g><g><path d="m256.142 268.007c-8.284 0-15-6.716-15-15v-16c0-8.284 6.716-15 15-15s15 6.716 15 15v16c0 8.285-6.716 15-15 15z" fill="#fff4f4"></path></g><g><path d="m256.142 344.007c-8.284 0-15-6.716-15-15v-16c0-8.284 6.716-15 15-15s15 6.716 15 15v16c0 8.285-6.716 15-15 15z" fill="#fff4f4"></path></g><g><path d="m256.142 420.007c-8.284 0-15-6.716-15-15v-16c0-8.284 6.716-15 15-15s15 6.716 15 15v16c0 8.285-6.716 15-15 15z" fill="#fff4f4"></path></g><g><path d="m256.142 491.01c-8.284 0-15-6.716-15-15v-11.002c0-8.284 6.716-15 15-15s15 6.716 15 15v11.002c0 8.284-6.716 15-15 15z" fill="#fff4f4"></path></g><path d="m512.016 15.212c.01-7.771-5.917-14.263-13.659-14.959-1.814-.163-3.86-.246-6.082-.246-11.827 0-23.377 3.215-33.428 9.194-11.839-6.04-24.934-9.194-38.409-9.194-25.75 0-50.065 11.877-66.005 31.648-5.032-1.226-10.212-1.844-15.494-1.844-5.688 0-11.245.712-16.625 2.126-15.93-19.951-40.314-31.93-66.24-31.93-26.208 0-50.705 12.148-66.614 32.401-5.908-1.713-12.064-2.597-18.251-2.597-5.282 0-10.462.618-15.494 1.844-15.94-19.77-40.255-31.648-66.004-31.648-13.564 0-26.743 3.196-38.643 9.313-10.408-5.749-23.4-9.119-36.065-9.119-3.979 0-7.796 1.581-10.609 4.395-2.815 2.814-4.395 6.63-4.394 10.609l.016 108.803h512z" fill="#00cb75"></path><path d="m498.357.253c-1.814-.163-3.86-.246-6.082-.246-11.827 0-23.377 3.215-33.428 9.194-11.839-6.04-24.934-9.194-38.409-9.194-25.75 0-50.065 11.877-66.005 31.648-5.032-1.226-10.212-1.844-15.494-1.844-5.688 0-11.245.712-16.625 2.126-15.917-19.935-40.271-31.909-66.171-31.93v124h255.872v-108.795c.011-7.771-5.916-14.262-13.658-14.959z" fill="#00ab5e"></path><g fill="#f6efea"><path d="m256.144 146.007v46c8.283-.001 14.998-6.716 14.998-15v-16c0-8.283-6.715-14.999-14.998-15z"></path><path d="m256.144 222.007v46c8.283-.001 14.998-6.716 14.998-15v-16c0-8.283-6.715-14.999-14.998-15z"></path><path d="m256.144 298.007v46c8.283-.001 14.998-6.716 14.998-15v-16c0-8.283-6.715-14.999-14.998-15z"></path><path d="m256.144 374.007v46c8.283-.001 14.998-6.716 14.998-15v-16c0-8.283-6.715-14.999-14.998-15z"></path><path d="m256.144 450.008v41.002c8.283-.001 14.998-6.716 14.998-15v-11.002c0-8.284-6.715-14.999-14.998-15z"></path></g></g></svg>